Coordinates
version=1
nRows=31
nColumns=38
inDegrees=no

Units are S.I. units (second, meters, Newtons, ...)
If the header above contains a line with 'inDegrees', this indicates whether rotational values are in degrees (yes) or radians (no).

endheader
time	pelvis_tilt	pelvis_list	pelvis_rotation	pelvis_tx	pelvis_ty	pelvis_tz	hip_flexion_r	hip_adduction_r	hip_rotation_r	knee_angle_r	ankle_angle_r	subtalar_angle_r	mtp_angle_r	hip_flexion_l	hip_adduction_l	hip_rotation_l	knee_angle_l	ankle_angle_l	subtalar_angle_l	mtp_angle_l	lumbar_extension	lumbar_bending	lumbar_rotation	arm_flex_r	arm_add_r	arm_rot_r	elbow_flex_r	pro_sup_r	wrist_flex_r	wrist_dev_r	arm_flex_l	arm_add_l	arm_rot_l	elbow_flex_l	pro_sup_l	wrist_flex_l	wrist_dev_l
0	-2.1839	1.44713	0.546248	0.63845	1.22027	0.975497	0.15187	0.0639787	-0.252159	0.267023	0.0802726	0	0	0.00392852	-0.099374	-0.217018	0	0.0156246	0	0	-0.187108	0.167089	0.138164	-0.45829	-0.32718	0.0146122	1.42905	1.5708	0	0	-0.335261	-0.272295	0.167821	1.28665	1.50626	0	0
0.01	-2.17311	1.44807	0.536394	0.638935	1.21971	0.975518	0.150121	0.0629968	-0.253427	0.268466	0.0816785	0	0	0.000824991	-0.0985547	-0.215917	0	0.0157499	0	0	-0.185538	0.166872	0.136358	-0.459445	-0.326802	0.00980964	1.43734	1.5708	0	0	-0.3396	-0.267429	0.154337	1.29579	1.51047	0	0
0.02	-2.16159	1.44894	0.525912	0.639399	1.21914	0.975525	0.148178	0.0621697	-0.254684	0.269553	0.0831585	0	0	-0.00221928	-0.0978941	-0.21519	0	0.0161808	0	0	-0.184064	0.166719	0.134477	-0.460737	-0.326028	0.0038231	1.44679	1.5708	0	0	-0.34345	-0.262795	0.142985	1.30561	1.51261	0	0
0.03	-2.14995	1.44984	0.515419	0.639861	1.2186	0.975533	0.146176	0.0613311	-0.255792	0.270439	0.0844417	0	0	-0.00502584	-0.0971907	-0.214658	0	0.0167141	0	0	-0.182767	0.166504	0.132554	-0.461878	-0.325349	-0.00133338	1.45655	1.5708	0	0	-0.346777	-0.258824	0.133742	1.31611	1.51028	0	0
0.04	-2.13949	1.45061	0.506084	0.640319	1.21811	0.975531	0.144296	0.0606035	-0.256363	0.270886	0.0853735	0	0	-0.00737819	-0.0965308	-0.214303	0	0.0172901	0	0	-0.181419	0.166279	0.130571	-0.462447	-0.324964	-0.00572763	1.46617	1.5708	0	0	-0.349959	-0.255615	0.12508	1.32722	1.50436	0	0
0.05	-2.12711	1.4513	0.494738	0.640775	1.21766	0.975534	0.142329	0.060073	-0.256753	0.271418	0.0863133	0	0	-0.00965398	-0.0960799	-0.213909	0	0.0180328	0	0	-0.180471	0.166378	0.128451	-0.462408	-0.325235	-0.00932717	1.47591	1.5708	0	0	-0.352715	-0.252466	0.117567	1.33834	1.50324	0	0
0.06	-2.12459	1.45159	0.493156	0.641151	1.2172	0.975488	0.141921	0.0592549	-0.257667	0.272806	0.0875821	0	0	-0.0104256	-0.0955106	-0.213451	0	0.0187195	0	0	-0.178086	0.165839	0.126491	-0.461842	-0.325521	-0.0117613	1.48358	1.5708	0	0	-0.355234	-0.249927	0.111212	1.34949	1.50275	0	0
0.07	-2.12275	1.45195	0.491991	0.641523	1.21674	0.975449	0.141789	0.0582435	-0.258856	0.274833	0.0892926	0	0	-0.0112053	-0.0948671	-0.213333	0	0.0193976	0	0	-0.175729	0.165306	0.124343	-0.460238	-0.326667	-0.0125553	1.49002	1.5708	0	0	-0.357787	-0.247657	0.105092	1.36043	1.5014	0	0
0.08	-2.12408	1.45222	0.493604	0.641853	1.21631	0.975399	0.141894	0.0573356	-0.259068	0.276139	0.0906682	0	0	-0.0116423	-0.0941065	-0.213477	0	0.0201349	0	0	-0.173071	0.164594	0.122346	-0.457717	-0.328607	-0.0118708	1.49458	1.5708	0	0	-0.360239	-0.24601	0.100152	1.37055	1.49907	0	0
0.09	-2.12442	1.45244	0.494174	0.642158	1.21589	0.975355	0.141719	0.0566298	-0.259093	0.27695	0.0917681	0	0	-0.0119033	-0.0935064	-0.213343	0	0.021226	0	0	-0.170591	0.163946	0.120084	-0.454136	-0.331637	-0.00897117	1.49699	1.5708	0	0	-0.36255	-0.244678	0.0967241	1.37909	1.49263	0	0
0.1	-2.12502	1.45242	0.49441	0.642398	1.21544	0.975299	0.141507	0.0562903	-0.258557	0.277332	0.0925995	0	0	-0.0120139	-0.0931775	-0.213635	0	0.0221939	0	0	-0.168051	0.163388	0.118534	-0.450417	-0.335531	-0.00489776	1.49851	1.5708	0	0	-0.364341	-0.243812	0.0960407	1.38516	1.48523	0	0
0.11	-2.12888	1.45235	0.497312	0.642623	1.21496	0.975217	0.141828	0.055686	-0.258349	0.278232	0.0937421	0	0	-0.0121397	-0.0926882	-0.214482	0	0.0228909	0	0	-0.165178	0.162671	0.117651	-0.447027	-0.340093	-0.000423131	1.5006	1.5708	0	0	-0.36565	-0.243176	0.097491	1.38909	1.48	0	0
0.12	-2.13301	1.45236	0.50015	0.642817	1.21449	0.975143	0.142186	0.0550072	-0.258176	0.279237	0.0948656	0	0	-0.0123294	-0.0921607	-0.215259	0	0.0236047	0	0	-0.162466	0.161849	0.11698	-0.444016	-0.345595	0.00485478	1.50443	1.5708	0	0	-0.366716	-0.242508	0.0993597	1.39178	1.47537	0	0
0.13	-2.13507	1.45249	0.500748	0.64299	1.21403	0.975086	0.142223	0.054369	-0.258042	0.280187	0.095844	0	0	-0.0126939	-0.0916877	-0.216085	0	0.0244887	0	0	-0.160266	0.16104	0.116737	-0.441661	-0.351365	0.0097162	1.5101	1.5708	0	0	-0.36767	-0.242103	0.100823	1.39454	1.46931	0	0
0.14	-2.13466	1.45275	0.498668	0.643135	1.21359	0.975048	0.141724	0.0539245	-0.257373	0.280545	0.0964964	0	0	-0.0134521	-0.0912165	-0.217042	0	0.0254159	0	0	-0.158599	0.160212	0.117093	-0.439834	-0.357175	0.0140655	1.51699	1.5708	0	0	-0.368639	-0.242237	0.101779	1.39832	1.45982	0	0
0.15	-2.13112	1.45302	0.493166	0.643244	1.21314	0.97503	0.140699	0.0538289	-0.256205	0.280449	0.0969134	0	0	-0.0147588	-0.090959	-0.218076	0	0.0264927	0	0	-0.157378	0.159524	0.118017	-0.438302	-0.36295	0.017736	1.52474	1.5708	0	0	-0.369831	-0.242489	0.10161	1.40375	1.44804	0	0
0.16	-2.12705	1.45316	0.486645	0.643305	1.21267	0.975012	0.139587	0.0540292	-0.254418	0.280174	0.0973021	0	0	-0.0162341	-0.0908617	-0.219533	0	0.0274943	0	0	-0.156051	0.158937	0.119792	-0.437216	-0.368424	0.0201335	1.53329	1.5708	0	0	-0.371309	-0.242439	0.0991422	1.41085	1.43546	0	0
0.17	-2.12389	1.45335	0.480663	0.643334	1.21221	0.974991	0.138619	0.054162	-0.252303	0.279946	0.0978557	0	0	-0.017626	-0.090642	-0.221141	0	0.0284202	0	0	-0.154682	0.158138	0.122127	-0.436258	-0.373371	0.02108	1.54266	1.5708	0	0	-0.373217	-0.242241	0.0950746	1.42025	1.42137	0	0
0.18	-2.12184	1.45349	0.475864	0.643375	1.21174	0.974963	0.137895	0.054186	-0.250383	0.280076	0.0984617	0	0	-0.018902	-0.0903638	-0.222591	0	0.0292761	0	0	-0.153042	0.15731	0.124484	-0.435525	-0.377497	0.0198571	1.55251	1.5708	0	0	-0.375508	-0.242054	0.0909907	1.43119	1.4088	0	0
0.19	-2.1176	1.45353	0.469172	0.643421	1.21126	0.974943	0.136864	0.0544473	-0.24878	0.279967	0.0986707	0	0	-0.0202723	-0.0903281	-0.223753	0	0.0302536	0	0	-0.15147	0.156704	0.126868	-0.435489	-0.381257	0.0176833	1.56232	1.5708	0	0	-0.377801	-0.242058	0.0871379	1.44316	1.39769	0	0
0.2	-2.11162	1.45365	0.461151	0.643503	1.21083	0.974946	0.135598	0.054683	-0.247456	0.279763	0.0989856	0	0	-0.0217289	-0.0903034	-0.224588	0	0.0311555	0	0	-0.1502	0.156198	0.129376	-0.436276	-0.384625	0.0148741	1.5714	1.5708	0	0	-0.379229	-0.241986	0.0824638	1.4553	1.38843	0	0
0.21	-2.10699	1.45392	0.454677	0.643645	1.21042	0.974966	0.13448	0.0545952	-0.246135	0.279567	0.0993217	0	0	-0.0230138	-0.0900158	-0.225526	0	0.0319395	0	0	-0.148912	0.155709	0.132107	-0.437727	-0.387322	0.0111251	1.57918	1.5708	0	0	-0.379471	-0.241709	0.078401	1.46693	1.38705	0	0
0.22	-2.10364	1.454	0.449144	0.643765	1.20998	0.974965	0.133707	0.0545657	-0.244604	0.279813	0.0998945	0	0	-0.0241345	-0.0898186	-0.227199	0	0.0329352	0	0	-0.14736	0.155537	0.135517	-0.439505	-0.389646	0.00736687	1.58532	1.5708	0	0	-0.378387	-0.241231	0.0774491	1.47681	1.39311	0	0
0.23	-2.10184	1.45387	0.445261	0.64384	1.2095	0.974937	0.133162	0.0546789	-0.243311	0.280056	0.100395	0	0	-0.0249629	-0.0897811	-0.228961	0	0.0340234	0	0	-0.145393	0.155541	0.138542	-0.440803	-0.39171	0.00465302	1.58968	1.5708	0	0	-0.377013	-0.240532	0.0776071	1.48486	1.39631	0	0
0.24	-2.09794	1.45384	0.439752	0.643937	1.20903	0.974917	0.132322	0.0547809	-0.242371	0.280191	0.100831	0	0	-0.0259418	-0.0897756	-0.230526	0	0.035039	0	0	-0.143801	0.155664	0.140709	-0.441127	-0.393556	0.00320174	1.59298	1.5708	0	0	-0.375911	-0.239548	0.0771042	1.49007	1.39601	0	0
0.25	-2.09195	1.45396	0.432744	0.644087	1.20859	0.974904	0.13129	0.0547698	-0.241808	0.280493	0.101378	0	0	-0.0271856	-0.0897209	-0.231307	0	0.0358771	0	0	-0.142647	0.155775	0.142007	-0.440164	-0.395159	0.00311284	1.59558	1.56596	0	0	-0.374943	-0.238668	0.0762322	1.49267	1.39226	0	0
0.26	-2.08385	1.45406	0.424206	0.644276	1.20822	0.974889	0.130223	0.0547666	-0.241655	0.281249	0.102083	0	0	-0.0284871	-0.0897991	-0.23145	0	0.0367573	0	0	-0.141895	0.155986	0.142485	-0.437976	-0.396454	0.00364477	1.59781	1.56034	0	0	-0.374065	-0.237962	0.0739925	1.49463	1.38559	0	0
0.27	-2.07421	1.45412	0.41469	0.644501	1.20789	0.974868	0.129058	0.0547824	-0.242112	0.282095	0.103005	0	0	-0.0297204	-0.0900325	-0.231195	0	0.0377395	0	0	-0.141418	0.156367	0.142232	-0.435258	-0.397428	0.00423102	1.60008	1.55534	0	0	-0.373136	-0.237093	0.0705916	1.49658	1.38291	0	0
0.28	-2.06252	1.45435	0.403072	0.644713	1.20756	0.974878	0.127394	0.0548593	-0.242236	0.282328	0.103713	0	0	-0.0313635	-0.0901826	-0.231343	0	0.0386382	0	0	-0.141324	0.156646	0.14218	-0.432617	-0.397792	0.0042354	1.60237	1.54956	0	0	-0.371685	-0.236736	0.0686729	1.49939	1.38222	0	0
0.29	-2.04821	1.45478	0.389006	0.644936	1.20722	0.974914	0.125284	0.0547712	-0.242934	0.282694	0.104391	0	0	-0.0335242	-0.0902094	-0.231439	0	0.0392389	0	0	-0.141615	0.156873	0.142166	-0.430336	-0.397545	0.00354282	1.60482	1.54075	0	0	-0.369443	-0.236906	0.0681846	1.50228	1.3783	0	0
0.3	-2.03277	1.45526	0.37403	0.645189	1.20691	0.974955	0.123034	0.0545859	-0.243786	0.283119	0.105073	0	0	-0.0358614	-0.0901611	-0.231118	0	0.0394306	0	0	-0.142155	0.157175	0.142217	-0.428784	-0.396669	0.00191758	1.60762	1.53307	0	0	-0.366442	-0.237212	0.068461	1.50541	1.37487	0	0
